<mxfile host="app.diagrams.net" modified="2024-07-13T16:30:53.827Z" agent="Mozilla/5.0 (Windows NT 10.0; Win64; x64; rv:128.0) Gecko/20100101 Firefox/128.0" etag="4LHPGveTL0Yf6ZfaXYCx" version="24.6.5" type="github">
  <diagram name="Page-1" id="TqLCWigCHuCm4nr3clzA">
    <mxGraphModel dx="2074" dy="1846" grid="1" gridSize="10" guides="1" tooltips="1" connect="1" arrows="1" fold="1" page="1" pageScale="1" pageWidth="850" pageHeight="1100" math="0" shadow="0">
      <root>
        <mxCell id="0" />
        <mxCell id="1" parent="0" />
        <mxCell id="bHzg9Q78IH5_kwIKg3NK-26" style="edgeStyle=orthogonalEdgeStyle;rounded=0;orthogonalLoop=1;jettySize=auto;html=1;" edge="1" parent="1" source="bHzg9Q78IH5_kwIKg3NK-2" target="bHzg9Q78IH5_kwIKg3NK-23">
          <mxGeometry relative="1" as="geometry" />
        </mxCell>
        <mxCell id="bHzg9Q78IH5_kwIKg3NK-2" value="&lt;div&gt;get rate from&lt;/div&gt;Rate Provider" style="ellipse;shape=cloud;whiteSpace=wrap;html=1;" vertex="1" parent="1">
          <mxGeometry x="630" y="200" width="120" height="80" as="geometry" />
        </mxCell>
        <mxCell id="bHzg9Q78IH5_kwIKg3NK-32" style="edgeStyle=orthogonalEdgeStyle;rounded=0;orthogonalLoop=1;jettySize=auto;html=1;entryX=0;entryY=0.5;entryDx=0;entryDy=0;" edge="1" parent="1" source="bHzg9Q78IH5_kwIKg3NK-3" target="bHzg9Q78IH5_kwIKg3NK-31">
          <mxGeometry relative="1" as="geometry" />
        </mxCell>
        <mxCell id="bHzg9Q78IH5_kwIKg3NK-3" value="&lt;div&gt;API&lt;/div&gt;" style="rounded=0;whiteSpace=wrap;html=1;" vertex="1" parent="1">
          <mxGeometry x="100" y="-100" width="120" height="60" as="geometry" />
        </mxCell>
        <mxCell id="bHzg9Q78IH5_kwIKg3NK-10" style="edgeStyle=orthogonalEdgeStyle;rounded=0;orthogonalLoop=1;jettySize=auto;html=1;exitX=0.5;exitY=1;exitDx=0;exitDy=0;entryX=0.5;entryY=0;entryDx=0;entryDy=0;" edge="1" parent="1" source="bHzg9Q78IH5_kwIKg3NK-6" target="bHzg9Q78IH5_kwIKg3NK-17">
          <mxGeometry relative="1" as="geometry">
            <mxPoint x="475" y="200" as="targetPoint" />
          </mxGeometry>
        </mxCell>
        <mxCell id="bHzg9Q78IH5_kwIKg3NK-11" value="yes" style="edgeLabel;html=1;align=center;verticalAlign=middle;resizable=0;points=[];" vertex="1" connectable="0" parent="bHzg9Q78IH5_kwIKg3NK-10">
          <mxGeometry x="-0.1" relative="1" as="geometry">
            <mxPoint x="19" y="-15" as="offset" />
          </mxGeometry>
        </mxCell>
        <mxCell id="bHzg9Q78IH5_kwIKg3NK-6" value="&lt;div&gt;has Rate&lt;/div&gt;&lt;div&gt;in cache?&lt;br&gt;&lt;/div&gt;" style="rhombus;whiteSpace=wrap;html=1;" vertex="1" parent="1">
          <mxGeometry x="350" y="60" width="115" height="100" as="geometry" />
        </mxCell>
        <mxCell id="bHzg9Q78IH5_kwIKg3NK-9" style="edgeStyle=orthogonalEdgeStyle;rounded=0;orthogonalLoop=1;jettySize=auto;html=1;exitX=1;exitY=0.5;exitDx=0;exitDy=0;entryX=0.4;entryY=0.1;entryDx=0;entryDy=0;entryPerimeter=0;" edge="1" parent="1" source="bHzg9Q78IH5_kwIKg3NK-6" target="bHzg9Q78IH5_kwIKg3NK-2">
          <mxGeometry relative="1" as="geometry">
            <Array as="points">
              <mxPoint x="560" y="110" />
              <mxPoint x="560" y="106" />
              <mxPoint x="678" y="106" />
            </Array>
          </mxGeometry>
        </mxCell>
        <mxCell id="bHzg9Q78IH5_kwIKg3NK-13" value="No" style="edgeLabel;html=1;align=center;verticalAlign=middle;resizable=0;points=[];" vertex="1" connectable="0" parent="bHzg9Q78IH5_kwIKg3NK-9">
          <mxGeometry x="-0.3717" y="2" relative="1" as="geometry">
            <mxPoint x="-36" y="-8" as="offset" />
          </mxGeometry>
        </mxCell>
        <mxCell id="bHzg9Q78IH5_kwIKg3NK-22" style="edgeStyle=orthogonalEdgeStyle;rounded=0;orthogonalLoop=1;jettySize=auto;html=1;exitX=0.5;exitY=1;exitDx=0;exitDy=0;entryX=0.5;entryY=0;entryDx=0;entryDy=0;" edge="1" parent="1" source="bHzg9Q78IH5_kwIKg3NK-17" target="bHzg9Q78IH5_kwIKg3NK-21">
          <mxGeometry relative="1" as="geometry" />
        </mxCell>
        <mxCell id="bHzg9Q78IH5_kwIKg3NK-17" value="&lt;div&gt;older than&lt;/div&gt;&lt;div&gt;30min&lt;br&gt;&lt;/div&gt;" style="rhombus;whiteSpace=wrap;html=1;" vertex="1" parent="1">
          <mxGeometry x="430" y="210" width="80" height="80" as="geometry" />
        </mxCell>
        <mxCell id="bHzg9Q78IH5_kwIKg3NK-19" style="edgeStyle=orthogonalEdgeStyle;rounded=0;orthogonalLoop=1;jettySize=auto;html=1;exitX=1;exitY=0.5;exitDx=0;exitDy=0;entryX=0.16;entryY=0.55;entryDx=0;entryDy=0;entryPerimeter=0;" edge="1" parent="1" source="bHzg9Q78IH5_kwIKg3NK-17" target="bHzg9Q78IH5_kwIKg3NK-2">
          <mxGeometry relative="1" as="geometry" />
        </mxCell>
        <mxCell id="bHzg9Q78IH5_kwIKg3NK-20" value="&lt;div&gt;yes&lt;/div&gt;" style="edgeLabel;html=1;align=center;verticalAlign=middle;resizable=0;points=[];" vertex="1" connectable="0" parent="bHzg9Q78IH5_kwIKg3NK-19">
          <mxGeometry x="-0.3802" relative="1" as="geometry">
            <mxPoint x="-5" y="-10" as="offset" />
          </mxGeometry>
        </mxCell>
        <mxCell id="bHzg9Q78IH5_kwIKg3NK-28" style="edgeStyle=orthogonalEdgeStyle;rounded=0;orthogonalLoop=1;jettySize=auto;html=1;entryX=1;entryY=0.5;entryDx=0;entryDy=0;" edge="1" parent="1" source="bHzg9Q78IH5_kwIKg3NK-21" target="bHzg9Q78IH5_kwIKg3NK-27">
          <mxGeometry relative="1" as="geometry" />
        </mxCell>
        <mxCell id="bHzg9Q78IH5_kwIKg3NK-21" value="&lt;div&gt;Calculate&lt;/div&gt;&lt;div&gt;Currency Exchange&lt;br&gt;&lt;/div&gt;" style="rounded=0;whiteSpace=wrap;html=1;" vertex="1" parent="1">
          <mxGeometry x="420" y="370" width="120" height="60" as="geometry" />
        </mxCell>
        <mxCell id="bHzg9Q78IH5_kwIKg3NK-25" style="edgeStyle=orthogonalEdgeStyle;rounded=0;orthogonalLoop=1;jettySize=auto;html=1;exitX=0.5;exitY=1;exitDx=0;exitDy=0;entryX=1;entryY=0.5;entryDx=0;entryDy=0;" edge="1" parent="1" source="bHzg9Q78IH5_kwIKg3NK-23" target="bHzg9Q78IH5_kwIKg3NK-21">
          <mxGeometry relative="1" as="geometry" />
        </mxCell>
        <mxCell id="bHzg9Q78IH5_kwIKg3NK-23" value="&lt;div&gt;Store in cache&lt;/div&gt;" style="rounded=0;whiteSpace=wrap;html=1;" vertex="1" parent="1">
          <mxGeometry x="620" y="310" width="120" height="60" as="geometry" />
        </mxCell>
        <mxCell id="bHzg9Q78IH5_kwIKg3NK-30" style="edgeStyle=orthogonalEdgeStyle;rounded=0;orthogonalLoop=1;jettySize=auto;html=1;entryX=0.5;entryY=0;entryDx=0;entryDy=0;" edge="1" parent="1" source="bHzg9Q78IH5_kwIKg3NK-27" target="bHzg9Q78IH5_kwIKg3NK-29">
          <mxGeometry relative="1" as="geometry" />
        </mxCell>
        <mxCell id="bHzg9Q78IH5_kwIKg3NK-27" value="&lt;div&gt;Store into Database&lt;/div&gt;" style="rounded=0;whiteSpace=wrap;html=1;" vertex="1" parent="1">
          <mxGeometry x="250" y="380" width="120" height="60" as="geometry" />
        </mxCell>
        <mxCell id="bHzg9Q78IH5_kwIKg3NK-29" value="Return result" style="rounded=0;whiteSpace=wrap;html=1;" vertex="1" parent="1">
          <mxGeometry x="250" y="500" width="120" height="60" as="geometry" />
        </mxCell>
        <mxCell id="bHzg9Q78IH5_kwIKg3NK-33" style="edgeStyle=orthogonalEdgeStyle;rounded=0;orthogonalLoop=1;jettySize=auto;html=1;entryX=0.5;entryY=0;entryDx=0;entryDy=0;" edge="1" parent="1" source="bHzg9Q78IH5_kwIKg3NK-31" target="bHzg9Q78IH5_kwIKg3NK-6">
          <mxGeometry relative="1" as="geometry" />
        </mxCell>
        <mxCell id="bHzg9Q78IH5_kwIKg3NK-34" value="No" style="edgeLabel;html=1;align=center;verticalAlign=middle;resizable=0;points=[];" vertex="1" connectable="0" parent="bHzg9Q78IH5_kwIKg3NK-33">
          <mxGeometry x="-0.1992" y="2" relative="1" as="geometry">
            <mxPoint x="15" as="offset" />
          </mxGeometry>
        </mxCell>
        <mxCell id="bHzg9Q78IH5_kwIKg3NK-36" value="" style="edgeStyle=orthogonalEdgeStyle;rounded=0;orthogonalLoop=1;jettySize=auto;html=1;" edge="1" parent="1" source="bHzg9Q78IH5_kwIKg3NK-31" target="bHzg9Q78IH5_kwIKg3NK-35">
          <mxGeometry relative="1" as="geometry" />
        </mxCell>
        <mxCell id="bHzg9Q78IH5_kwIKg3NK-37" value="&lt;div&gt;yes&lt;/div&gt;" style="edgeLabel;html=1;align=center;verticalAlign=middle;resizable=0;points=[];" vertex="1" connectable="0" parent="bHzg9Q78IH5_kwIKg3NK-36">
          <mxGeometry x="-0.1826" y="3" relative="1" as="geometry">
            <mxPoint x="1" y="-7" as="offset" />
          </mxGeometry>
        </mxCell>
        <mxCell id="bHzg9Q78IH5_kwIKg3NK-31" value="&lt;div&gt;10 currency&amp;nbsp;&lt;/div&gt;&lt;div&gt;exchange trades in&amp;nbsp;&lt;/div&gt;&lt;div&gt;the last hour for this client?&lt;/div&gt;" style="rhombus;whiteSpace=wrap;html=1;" vertex="1" parent="1">
          <mxGeometry x="341.25" y="-140" width="132.5" height="140" as="geometry" />
        </mxCell>
        <mxCell id="bHzg9Q78IH5_kwIKg3NK-35" value="&lt;div&gt;Return message&lt;/div&gt;&lt;div&gt;&quot;Hour Limit Reached&quot;&lt;br&gt;&lt;/div&gt;" style="whiteSpace=wrap;html=1;" vertex="1" parent="1">
          <mxGeometry x="560" y="-100" width="120" height="60" as="geometry" />
        </mxCell>
      </root>
    </mxGraphModel>
  </diagram>
</mxfile>
